<?xml version="1.0" standalone="no"?><!DOCTYPE svg PUBLIC "-//W3C//DTD SVG 1.1//EN" "http://www.w3.org/Graphics/SVG/1.1/DTD/svg11.dtd"><svg t="1637026047635" class="icon" viewBox="0 0 1024 1024" version="1.1" xmlns="http://www.w3.org/2000/svg" p-id="30289" width="64" height="64" xmlns:xlink="http://www.w3.org/1999/xlink"><defs><style type="text/css"></style></defs><path d="M512 64a448 448 0 1 1 0 896 448 448 0 0 1 0-896z m0 64a384 384 0 1 0 0 768 384 384 0 0 0 0-768z m-3.2 320a48 48 0 0 1 48 48v224a48 48 0 1 1-96 0V496a48 48 0 0 1 48-48z m3.2-192a64 64 0 1 1 0 128 64 64 0 0 1 0-128z" p-id="30290" fill="#C6C8CB"></path></svg>